<svg xmlns="http://www.w3.org/2000/svg" version="1.1" xmlns:xlink="http://www.w3.org/1999/xlink" width="512" height="512" x="0" y="0" viewBox="0 0 27.269 27.269" style="enable-background:new 0 0 512 512" xml:space="preserve" class=""><g><path d="M25.322 1.947H1.949C.869 1.947 0 2.818 0 3.898v19.477c0 1.074.869 1.947 1.949 1.947h23.373c1.07 0 1.947-.873 1.947-1.947V3.898a1.95 1.95 0 0 0-1.947-1.951zM9.312 3.41a.974.974 0 1 1-.002 1.948.974.974 0 0 1 .002-1.948zm-2.982 0a.975.975 0 1 1 0 1.946.975.975 0 0 1 0-1.946zm-2.924 0a.973.973 0 1 1 .004 1.946.973.973 0 0 1-.004-1.946zm21.916 19.965H1.949V6.838h23.373v16.537z" fill="#c5c5c5" opacity="1" data-original="#000000" class=""></path><path d="M14.797 15.566 5.844 20.16v-1.332l7.602-3.781v-.039l-7.602-3.782V9.894l8.953 4.572v1.1zM21.422 14.334v1.232h-4.764v-1.232h4.764z" fill="#c5c5c5" opacity="1" data-original="#000000" class=""></path></g></svg>